<svg width="28" height="28" viewBox="0 0 28 28" fill="none" xmlns="http://www.w3.org/2000/svg">
<g id="icon_notifications">
<path id="Vector" d="M16.9779 23.4998L16.8301 22.4631C16.83 22.463 16.83 22.4629 16.83 22.4628C16.7568 21.9512 16.7989 21.3938 16.9199 20.9012C17.0381 20.4203 17.2482 19.9337 17.5664 19.6154L22.0956 15.0863C22.0962 15.0858 22.0967 15.0852 22.0973 15.0846C23.2946 13.8635 23.9617 12.2191 23.9536 10.5089C23.9455 8.79783 23.2621 7.15917 22.0522 5.94927C20.8423 4.73936 19.2037 4.05605 17.4926 4.04792C15.7823 4.03981 14.138 4.70693 12.9168 5.90429L8.38605 10.4339C8.38604 10.4339 8.38602 10.4339 8.38601 10.4339C8.0678 10.7521 7.58122 10.9623 7.10034 11.0804C6.60776 11.2014 6.05031 11.2435 5.53881 11.1703L16.9779 23.4998ZM16.9779 23.4998L16.6845 23.7932L4.20711 11.3158L4.50053 11.0224L5.53844 11.1703L16.9779 23.4998ZM7.09984 18.4189C7.13039 18.3478 7.16535 18.2788 7.20445 18.2124L9.71444 20.7224C9.64802 20.7615 9.57905 20.7964 9.50793 20.827C9.28426 20.9231 9.04369 20.9737 8.80026 20.9758C8.55683 20.9779 8.31542 20.9315 8.09011 20.8393C7.8648 20.7471 7.6601 20.611 7.48796 20.4389C7.31583 20.2667 7.1797 20.062 7.08752 19.8367C6.99533 19.6114 6.94895 19.37 6.95106 19.1266C6.95318 18.8832 7.00375 18.6426 7.09984 18.4189Z" fill="#292929" stroke="#292929"/>
</g>
</svg>
