<svg width="15" height="16" viewBox="0 0 15 16" fill="none" xmlns="http://www.w3.org/2000/svg">
<path fill-rule="evenodd" clip-rule="evenodd" d="M12.1503 3.34476C11.5436 2.73775 10.8228 2.25673 10.0294 1.92941C9.23605 1.60209 8.38577 1.43492 7.52754 1.43753C3.92578 1.43753 0.99375 4.35491 0.992285 7.94144C0.990692 9.08346 1.29173 10.2055 1.86475 11.1934L0.9375 14.5625L4.40186 13.6581C5.36081 14.1776 6.43427 14.4495 7.5249 14.4492H7.52754C11.129 14.4492 14.0607 11.5315 14.0625 7.94524C14.0647 7.08994 13.8967 6.24274 13.5685 5.45294C13.2402 4.66314 12.7581 3.94652 12.1503 3.34476ZM7.52754 13.3514H7.52519C6.55294 13.3517 5.59837 13.0915 4.76074 12.5979L4.5624 12.4807L2.50664 13.0174L3.05537 11.0226L2.92617 10.8175C2.38253 9.95682 2.09451 8.95944 2.09561 7.94144C2.09561 4.96107 4.5334 2.53616 7.52959 2.53616C8.96689 2.5336 10.3464 3.10204 11.3646 4.11647C12.3828 5.1309 12.9564 6.50824 12.9592 7.94554C12.958 10.9262 10.5214 13.3514 7.52754 13.3514ZM10.5067 9.30286C10.3436 9.22142 9.53994 8.82825 9.39111 8.77405C9.24228 8.71985 9.13242 8.69261 9.02373 8.8555C8.91504 9.01839 8.60185 9.38284 8.50664 9.49271C8.41142 9.60257 8.31621 9.61458 8.15303 9.53314C7.98984 9.45169 7.46338 9.2803 6.83965 8.72659C6.3542 8.29564 6.02666 7.7636 5.93145 7.60101C5.83623 7.43841 5.92119 7.35023 6.00293 7.26937C6.07646 7.19642 6.16611 7.07952 6.24785 6.9846C6.32959 6.88968 6.35684 6.82171 6.41103 6.71331C6.46523 6.60491 6.43828 6.50999 6.39756 6.42884C6.35684 6.34769 6.03018 5.54759 5.89424 5.2221C5.76152 4.90511 5.62705 4.94817 5.52685 4.94319C5.43164 4.93851 5.32178 4.93734 5.21367 4.93734C5.13103 4.93949 5.04972 4.95865 4.97481 4.99363C4.89991 5.02862 4.83302 5.07866 4.77832 5.14065C4.62861 5.30355 4.20674 5.6973 4.20674 6.49651C4.20674 7.29573 4.79268 8.06917 4.87354 8.17757C4.95439 8.28597 6.0249 9.92747 7.66289 10.6315C7.96705 10.7617 8.27783 10.876 8.59394 10.9737C8.98506 11.0973 9.34102 11.08 9.62227 11.0381C9.93603 10.9915 10.5891 10.645 10.7247 10.2653C10.8604 9.88558 10.8606 9.56038 10.8199 9.49271C10.7792 9.42503 10.6702 9.38401 10.5067 9.30286Z" fill="#4A4A4A"/>
</svg>
