<svg width="18" height="18" viewBox="0 0 18 18" fill="none" xmlns="http://www.w3.org/2000/svg">
<g id="mingcute:bill-line" clip-path="url(#clip0_581_6366)">
<g id="Group">
<path id="Vector" fill-rule="evenodd" clip-rule="evenodd" d="M3 3.75C3 3.15326 3.23705 2.58097 3.65901 2.15901C4.08097 1.73705 4.65326 1.5 5.25 1.5H12.75C13.3467 1.5 13.919 1.73705 14.341 2.15901C14.7629 2.58097 15 3.15326 15 3.75V15.75C14.9999 15.8913 14.9599 16.0296 14.8847 16.1492C14.8094 16.2687 14.7019 16.3645 14.5745 16.4257C14.4472 16.4868 14.3052 16.5107 14.1648 16.4947C14.0245 16.4786 13.8915 16.4233 13.7812 16.335L12.375 15.21L10.9688 16.335C10.8247 16.4504 10.6431 16.5086 10.4588 16.4985C10.2745 16.4884 10.1003 16.4107 9.96975 16.2802L9 15.3105L8.03025 16.2802C7.89975 16.4108 7.72568 16.4887 7.54136 16.4989C7.35703 16.5092 7.17541 16.4511 7.03125 16.3357L5.625 15.21L4.21875 16.335C4.10848 16.4233 3.97552 16.4786 3.83517 16.4947C3.69482 16.5107 3.5528 16.4868 3.42545 16.4257C3.2981 16.3645 3.19061 16.2687 3.11534 16.1492C3.04007 16.0296 3.00009 15.8913 3 15.75V3.75ZM5.25 3C5.05109 3 4.86032 3.07902 4.71967 3.21967C4.57902 3.36032 4.5 3.55109 4.5 3.75V14.19L5.15625 13.665C5.28927 13.5585 5.4546 13.5005 5.625 13.5005C5.7954 13.5005 5.96073 13.5585 6.09375 13.665L7.44375 14.745L8.46975 13.7197C8.6104 13.5791 8.80113 13.5002 9 13.5002C9.19887 13.5002 9.3896 13.5791 9.53025 13.7197L10.5555 14.745L11.9062 13.665C12.0393 13.5585 12.2046 13.5005 12.375 13.5005C12.5454 13.5005 12.7107 13.5585 12.8438 13.665L13.5 14.19V3.75C13.5 3.55109 13.421 3.36032 13.2803 3.21967C13.1397 3.07902 12.9489 3 12.75 3H5.25ZM6 6.75C6 6.55109 6.07902 6.36032 6.21967 6.21967C6.36032 6.07902 6.55109 6 6.75 6H11.25C11.4489 6 11.6397 6.07902 11.7803 6.21967C11.921 6.36032 12 6.55109 12 6.75C12 6.94891 11.921 7.13968 11.7803 7.28033C11.6397 7.42098 11.4489 7.5 11.25 7.5H6.75C6.55109 7.5 6.36032 7.42098 6.21967 7.28033C6.07902 7.13968 6 6.94891 6 6.75ZM6.75 9C6.55109 9 6.36032 9.07902 6.21967 9.21967C6.07902 9.36032 6 9.55109 6 9.75C6 9.94891 6.07902 10.1397 6.21967 10.2803C6.36032 10.421 6.55109 10.5 6.75 10.5H9C9.19891 10.5 9.38968 10.421 9.53033 10.2803C9.67098 10.1397 9.75 9.94891 9.75 9.75C9.75 9.55109 9.67098 9.36032 9.53033 9.21967C9.38968 9.07902 9.19891 9 9 9H6.75Z" fill="#4A4A4A"/>
</g>
</g>
<defs>
<clipPath id="clip0_581_6366">
<rect width="18" height="18" fill="white"/>
</clipPath>
</defs>
</svg>
