<svg width="67" height="58" viewBox="0 0 67 58" fill="none" xmlns="http://www.w3.org/2000/svg">
<g id="upload-cloud" clip-path="url(#clip0_581_6328)">
<g id="Group 1">
<path id="Vector" d="M44.5344 38.5529L33.401 28.915L22.2676 38.5529" stroke="white" stroke-width="4.98512" stroke-linecap="round" stroke-linejoin="round"/>
<path id="Vector_2" d="M33.4004 28.915V50.6003" stroke="white" stroke-width="4.98512" stroke-linecap="round" stroke-linejoin="round"/>
<path id="Vector_3" d="M56.7527 44.3112C59.4674 43.0301 61.612 41.0027 62.8479 38.5493C64.0838 36.0958 64.3407 33.3559 63.5781 30.762C62.8154 28.1681 61.0766 25.8679 58.6361 24.2245C56.1956 22.5811 53.1924 21.688 50.1005 21.6863H46.5934C45.751 18.8654 44.1807 16.2465 42.0008 14.0265C39.8208 11.8066 37.0878 10.0433 34.0074 8.86934C30.9269 7.69534 27.5791 7.14114 24.2156 7.24842C20.8521 7.3557 17.5604 8.12166 14.5881 9.48871C11.6158 10.8558 9.04014 12.7883 7.0548 15.1411C5.06946 17.4939 3.72609 20.2057 3.12569 23.0727C2.52529 25.9396 2.68349 28.8871 3.58838 31.6935C4.49327 34.4998 6.12131 37.0921 8.35011 39.2754" stroke="white" stroke-width="4.98512" stroke-linecap="round" stroke-linejoin="round"/>
<path id="Vector_4" d="M44.5344 38.5529L33.401 28.915L22.2676 38.5529" stroke="white" stroke-width="4.98512" stroke-linecap="round" stroke-linejoin="round"/>
</g>
</g>
<defs>
<clipPath id="clip0_581_6328">
<rect width="66.8006" height="57.8274" fill="white"/>
</clipPath>
</defs>
</svg>
